# xmcd
#
# Track frame offsets:
#	150
#	10467
#	20072
#	31326
#	43630
#	52709
#	66776
#	77354
#	88796
#	100424
#
# Disc length: 1466 seconds
#
# Revision: 1
# Processed by: cddbd v1.5.2PL0 Copyright (c) Steve Scherf et al.
# Submitted via: audiograbber 1.83.01
#
DISCID=7305b80a
DTITLE=Canned Heat - Vintage
DYEAR=1900
DGENRE=Oldies
TTITLE0=Rollin' And Tumblin' - Part 1 
TTITLE1=Big Road Blues
TTITLE2=Spoonful
TTITLE3=Got My Mojo Working
TTITLE4=Pretty Thing
TTITLE5=Louise
TTITLE6=Dimples
TTITLE7=Can't Hold On
TTITLE8=Straight Ahead
TTITLE9=Rollin' And Tumblin' - Part 2 
EXTD=
EXTT0=
EXTT1=
EXTT2=
EXTT3=
EXTT4=
EXTT5=
EXTT6=
EXTT7=
EXTT8=
EXTT9=
PLAYORDER=
